<mxfile host="app.diagrams.net" modified="2023-04-02T17:27:49.630Z" agent="Mozilla/5.0 (Windows NT 10.0; Win64; x64) AppleWebKit/537.36 (KHTML, like Gecko) Chrome/111.0.0.0 Safari/537.36" etag="hTCt_WbxogD6J3Tqp5cF" version="21.1.2" type="device">
  <diagram name="Pagina-1" id="TMUKVQUCC4T7ybc3D0Jv">
    <mxGraphModel dx="690" dy="331" grid="1" gridSize="10" guides="1" tooltips="1" connect="1" arrows="1" fold="1" page="1" pageScale="1" pageWidth="827" pageHeight="1169" math="0" shadow="0">
      <root>
        <mxCell id="0" />
        <mxCell id="1" parent="0" />
        <mxCell id="6_pRxBWMGWtzrW2JSBdR-1" value="Gestore" style="shape=umlActor;verticalLabelPosition=bottom;verticalAlign=top;html=1;outlineConnect=0;" vertex="1" parent="1">
          <mxGeometry x="30" y="235" width="30" height="60" as="geometry" />
        </mxCell>
        <mxCell id="6_pRxBWMGWtzrW2JSBdR-10" style="rounded=0;orthogonalLoop=1;jettySize=auto;html=1;endArrow=block;endFill=0;" edge="1" parent="1" source="6_pRxBWMGWtzrW2JSBdR-2">
          <mxGeometry relative="1" as="geometry">
            <mxPoint x="70" y="260" as="targetPoint" />
          </mxGeometry>
        </mxCell>
        <mxCell id="6_pRxBWMGWtzrW2JSBdR-16" style="rounded=0;orthogonalLoop=1;jettySize=auto;html=1;endArrow=none;endFill=0;" edge="1" parent="1" source="6_pRxBWMGWtzrW2JSBdR-2" target="6_pRxBWMGWtzrW2JSBdR-9">
          <mxGeometry relative="1" as="geometry" />
        </mxCell>
        <mxCell id="6_pRxBWMGWtzrW2JSBdR-2" value="Amministratore" style="shape=umlActor;verticalLabelPosition=bottom;verticalAlign=top;html=1;outlineConnect=0;" vertex="1" parent="1">
          <mxGeometry x="200" y="160" width="30" height="60" as="geometry" />
        </mxCell>
        <mxCell id="6_pRxBWMGWtzrW2JSBdR-11" style="rounded=0;orthogonalLoop=1;jettySize=auto;html=1;endArrow=block;endFill=0;" edge="1" parent="1" source="6_pRxBWMGWtzrW2JSBdR-3">
          <mxGeometry relative="1" as="geometry">
            <mxPoint x="70" y="280" as="targetPoint" />
          </mxGeometry>
        </mxCell>
        <mxCell id="6_pRxBWMGWtzrW2JSBdR-12" style="rounded=0;orthogonalLoop=1;jettySize=auto;html=1;entryX=0;entryY=0.5;entryDx=0;entryDy=0;endArrow=none;endFill=0;" edge="1" parent="1" source="6_pRxBWMGWtzrW2JSBdR-3" target="6_pRxBWMGWtzrW2JSBdR-4">
          <mxGeometry relative="1" as="geometry" />
        </mxCell>
        <mxCell id="6_pRxBWMGWtzrW2JSBdR-13" style="rounded=0;orthogonalLoop=1;jettySize=auto;html=1;entryX=0;entryY=0.5;entryDx=0;entryDy=0;endArrow=none;endFill=0;" edge="1" parent="1" source="6_pRxBWMGWtzrW2JSBdR-3" target="6_pRxBWMGWtzrW2JSBdR-6">
          <mxGeometry relative="1" as="geometry" />
        </mxCell>
        <mxCell id="6_pRxBWMGWtzrW2JSBdR-14" style="rounded=0;orthogonalLoop=1;jettySize=auto;html=1;entryX=0;entryY=0.5;entryDx=0;entryDy=0;endArrow=none;endFill=0;" edge="1" parent="1" source="6_pRxBWMGWtzrW2JSBdR-3" target="6_pRxBWMGWtzrW2JSBdR-7">
          <mxGeometry relative="1" as="geometry" />
        </mxCell>
        <mxCell id="6_pRxBWMGWtzrW2JSBdR-15" style="rounded=0;orthogonalLoop=1;jettySize=auto;html=1;entryX=0;entryY=0.5;entryDx=0;entryDy=0;endArrow=none;endFill=0;" edge="1" parent="1" source="6_pRxBWMGWtzrW2JSBdR-3" target="6_pRxBWMGWtzrW2JSBdR-5">
          <mxGeometry relative="1" as="geometry" />
        </mxCell>
        <mxCell id="6_pRxBWMGWtzrW2JSBdR-3" value="Moderatore" style="shape=umlActor;verticalLabelPosition=bottom;verticalAlign=top;html=1;outlineConnect=0;" vertex="1" parent="1">
          <mxGeometry x="200" y="300" width="30" height="60" as="geometry" />
        </mxCell>
        <mxCell id="6_pRxBWMGWtzrW2JSBdR-4" value="Visualizzazione attivitÃ  giocatori" style="ellipse;whiteSpace=wrap;html=1;" vertex="1" parent="1">
          <mxGeometry x="450" y="155" width="140" height="70" as="geometry" />
        </mxCell>
        <mxCell id="6_pRxBWMGWtzrW2JSBdR-5" value="Segnalazione giocatori" style="ellipse;whiteSpace=wrap;html=1;" vertex="1" parent="1">
          <mxGeometry x="450" y="510" width="140" height="70" as="geometry" />
        </mxCell>
        <mxCell id="6_pRxBWMGWtzrW2JSBdR-6" value="Eliminazione commenti" style="ellipse;whiteSpace=wrap;html=1;" vertex="1" parent="1">
          <mxGeometry x="450" y="295" width="140" height="70" as="geometry" />
        </mxCell>
        <mxCell id="6_pRxBWMGWtzrW2JSBdR-7" value="Verifica oggetto" style="ellipse;whiteSpace=wrap;html=1;" vertex="1" parent="1">
          <mxGeometry x="450" y="400" width="140" height="70" as="geometry" />
        </mxCell>
        <mxCell id="6_pRxBWMGWtzrW2JSBdR-9" value="Rimozione giocatori" style="ellipse;whiteSpace=wrap;html=1;" vertex="1" parent="1">
          <mxGeometry x="450" y="10" width="140" height="70" as="geometry" />
        </mxCell>
        <mxCell id="6_pRxBWMGWtzrW2JSBdR-17" value="&amp;lt;&amp;lt;include&amp;gt;&amp;gt;" style="html=1;verticalAlign=bottom;labelBackgroundColor=none;endArrow=open;endFill=0;dashed=1;rounded=0;exitX=1;exitY=0.5;exitDx=0;exitDy=0;entryX=1;entryY=0.5;entryDx=0;entryDy=0;" edge="1" parent="1" source="6_pRxBWMGWtzrW2JSBdR-5" target="6_pRxBWMGWtzrW2JSBdR-4">
          <mxGeometry y="-40" width="160" relative="1" as="geometry">
            <mxPoint x="650" y="140" as="sourcePoint" />
            <mxPoint x="810" y="140" as="targetPoint" />
            <Array as="points">
              <mxPoint x="750" y="545" />
              <mxPoint x="750" y="190" />
            </Array>
            <mxPoint as="offset" />
          </mxGeometry>
        </mxCell>
        <mxCell id="6_pRxBWMGWtzrW2JSBdR-19" value="&amp;lt;&amp;lt;include&amp;gt;&amp;gt;" style="html=1;verticalAlign=bottom;labelBackgroundColor=none;endArrow=open;endFill=0;dashed=1;rounded=0;exitX=1;exitY=0.5;exitDx=0;exitDy=0;entryX=1;entryY=1;entryDx=0;entryDy=0;" edge="1" parent="1" source="6_pRxBWMGWtzrW2JSBdR-7" target="6_pRxBWMGWtzrW2JSBdR-4">
          <mxGeometry x="-0.0424" y="-30" width="160" relative="1" as="geometry">
            <mxPoint x="600" y="425" as="sourcePoint" />
            <mxPoint x="600" y="135" as="targetPoint" />
            <Array as="points">
              <mxPoint x="670" y="435" />
              <mxPoint x="670" y="215" />
            </Array>
            <mxPoint as="offset" />
          </mxGeometry>
        </mxCell>
        <mxCell id="6_pRxBWMGWtzrW2JSBdR-20" value="&amp;lt;&amp;lt;include&amp;gt;&amp;gt;" style="html=1;verticalAlign=bottom;labelBackgroundColor=none;endArrow=open;endFill=0;dashed=1;rounded=0;exitX=0.5;exitY=0;exitDx=0;exitDy=0;entryX=0.5;entryY=1;entryDx=0;entryDy=0;" edge="1" parent="1" source="6_pRxBWMGWtzrW2JSBdR-6" target="6_pRxBWMGWtzrW2JSBdR-4">
          <mxGeometry x="-0.25" y="-40" width="160" relative="1" as="geometry">
            <mxPoint x="500" y="210" as="sourcePoint" />
            <mxPoint x="660" y="210" as="targetPoint" />
            <mxPoint y="-1" as="offset" />
          </mxGeometry>
        </mxCell>
        <mxCell id="6_pRxBWMGWtzrW2JSBdR-21" value="&amp;lt;&amp;lt;include&amp;gt;&amp;gt;" style="html=1;verticalAlign=bottom;labelBackgroundColor=none;endArrow=open;endFill=0;dashed=1;rounded=0;exitX=0.5;exitY=1;exitDx=0;exitDy=0;entryX=0.5;entryY=0;entryDx=0;entryDy=0;" edge="1" parent="1" source="6_pRxBWMGWtzrW2JSBdR-9" target="6_pRxBWMGWtzrW2JSBdR-4">
          <mxGeometry x="0.0667" y="40" width="160" relative="1" as="geometry">
            <mxPoint x="630" y="70" as="sourcePoint" />
            <mxPoint x="790" y="70" as="targetPoint" />
            <mxPoint as="offset" />
          </mxGeometry>
        </mxCell>
      </root>
    </mxGraphModel>
  </diagram>
</mxfile>
